<svg xmlns="http://www.w3.org/2000/svg" width="101.98" height="25.454" viewBox="0 0 101.98 25.454"><defs><style>.a{fill:#fff;}</style></defs><g transform="translate(-141.541 -170.648)"><path class="a" d="M174.081,193.329a1.1,1.1,0,0,1-.774.283h-.3v2.117H174.2a4.145,4.145,0,0,0,1.312-.182,1.671,1.671,0,0,0,.857-.692,5.3,5.3,0,0,0,.62-1.446l1.173-4.222H175.4l-.832,3.153A2.055,2.055,0,0,1,174.081,193.329Z"/><path class="a" d="M187.564,188.245a5.762,5.762,0,0,0,.746-1.475l.565-1.717h-2.821l-.231.725a2.284,2.284,0,0,1-.345.738.978.978,0,0,1-.8.261h-1.477v2.091h2.961A1.582,1.582,0,0,0,187.564,188.245Z"/><path class="a" d="M170.759,195.648a1.573,1.573,0,0,0,.842-.671,5.62,5.62,0,0,0,.615-1.478l1.173-4.224H170.64l-.831,3.153a2.073,2.073,0,0,1-.483.99,1.1,1.1,0,0,1-.774.283h-.3v2.129h1.186A4.209,4.209,0,0,0,170.759,195.648Z"/><path class="a" d="M184.974,194.948a1.268,1.268,0,0,0,.684.6,4.01,4.01,0,0,0,1.357.18h3.139v-2.535h-1.515c-.794,0-1.019-.1-1.125-.2h0a1.23,1.23,0,0,1-.335-.659l-.765-2.732h-2.787l.907,4.016A5.023,5.023,0,0,0,184.974,194.948Z"/><path class="a" d="M189.241,183.821a2.051,2.051,0,0,0,.792-1.04,5.411,5.411,0,0,0,.184-1.527V177.52h-1.5l1.029-1.8v-2.132h-15.9l1.115-2.087-3.524.949-.88,1.442a1.244,1.244,0,0,1-1.251.761h-1.059v1.876h1.2a16.388,16.388,0,0,0,1.776-.055,1.679,1.679,0,0,0,.549-.178,3.5,3.5,0,0,0,.562-.425l.045-.04h13.762l-1.3,1.688h-16.6v6.758h4.994l-1.33,1.215a3.166,3.166,0,0,1-.8.5,2.148,2.148,0,0,1-.878.236h-1.984v2.307h2.111a7.866,7.866,0,0,0,2.293-.164,3.134,3.134,0,0,0,.819-.592l.046-.043h5.992v4.09a2.927,2.927,0,0,1-.215,1.411.772.772,0,0,1-.68.371h-.855v2.117h2.39a2.817,2.817,0,0,0,1.218-.314,1.475,1.475,0,0,0,.81-.931,5.753,5.753,0,0,0,.209-1.678v-7.373h-6.785l1.488-1.155h10.516A2.689,2.689,0,0,0,189.241,183.821Zm-13.576-1.71h-4.609v-2.55l7.347-.014Zm11.674-.87a.921.921,0,0,1-.218.574.868.868,0,0,1-.727.3h-7.183l2.461-2.564h.068l5.6.013Z"/><path class="a" d="M198.918,180.3a2.782,2.782,0,0,1-1.32.2h-3.24v2.573h5.066a2.8,2.8,0,0,0,2.149-.628,4.455,4.455,0,0,0,.8-1.273l1.1-3H200l-.479,1.243A1.8,1.8,0,0,1,198.918,180.3Z"/><path class="a" d="M194.358,176.688h22.571v-2.6h-9.182l.016-3.04-4.319,3.04h-9.085Z"/><path class="a" d="M209.834,182.061a3.089,3.089,0,0,0,1.275.84,5.249,5.249,0,0,0,1.427.178h4.558v-2.611h-2.466c-.612,0-1.018-.01-1.238-.032a1.178,1.178,0,0,1-.659-.278,1.778,1.778,0,0,1-.472-.785l-.442-1.2h-3.762l.789,2.261A4.1,4.1,0,0,0,209.834,182.061Z"/><path class="a" d="M200.4,195.9a4.862,4.862,0,0,0,2.064-1.083l3.365-2.687,4.029,2.82a6.913,6.913,0,0,0,4.043,1.087h3.188v-2.623h-1.882a5.331,5.331,0,0,1-1.79-.321,5.517,5.517,0,0,1-1.542-.816l-3.06-2.379,6.722-5.564h-4.818l-4.778,3.458-4.883-3.217-5.174-.023,7.217,5.53-3.43,2.739a2.886,2.886,0,0,1-.739.392,4.1,4.1,0,0,1-.705.23,8.908,8.908,0,0,1-1.04.034h-2.834v2.561l4.178.012A10.51,10.51,0,0,0,200.4,195.9Z"/><path class="a" d="M232.923,195.549a6.6,6.6,0,0,0,1.181-1.257l3.4-4.782h-3.646l-2.349,3.008a2.727,2.727,0,0,1-1.2,1.045,4.677,4.677,0,0,1-1.077.106h-.779V196l2.24.035A3.513,3.513,0,0,0,232.923,195.549Z"/><path class="a" d="M243.521,193.193v-7.361H226.534l.412-1.612h12.018c1.6,0,2.629-.185,3.054-.551a2.489,2.489,0,0,0,.825-1.2,6.322,6.322,0,0,0,.184-1.651v-7.538H224.878l.253-2.63L221.56,173.2V184.22h2.13l-.681,2c-.224.635-.508.991-.869,1.091a4.156,4.156,0,0,1-1.107.133h-.12v2.471h.538a11.736,11.736,0,0,0,1.656-.087,1.858,1.858,0,0,0,.872-.342,4.2,4.2,0,0,0,.623-.593l.528-.639h15.2v4.408a1.013,1.013,0,0,1-.263.746.814.814,0,0,1-.582.262h-2.593v2.37H239.9C242.338,196.039,243.521,195.108,243.521,193.193Zm-18.628-17.621h14.94v2.068h-14.94Zm0,6.316v-2.093h14.94v1.2a.9.9,0,0,1-.223.694,1.644,1.644,0,0,1-1.039.2Z"/><path class="a" d="M226.661,194.343l3.384-4.783H226.4l-2.336,2.995a2.773,2.773,0,0,1-1.227,1.071,3.8,3.8,0,0,1-1.152.081l-.77-.031v2.363h2.314a6.117,6.117,0,0,0,1.767-.253A3.537,3.537,0,0,0,226.661,194.343Z"/><path class="a" d="M147.472,194.234l5.273-6.507,5.463,6.838a3.427,3.427,0,0,0,1.7,1.32,8.257,8.257,0,0,0,1.928.205l2.111.012v-2.674h-.894a3.285,3.285,0,0,1-1.394-.237,3.219,3.219,0,0,1-.982-.793l-.791-.995-5.691-7.119v-9.093l-3.081-2.147v11.238l-.032.043-6.125,7.963a3.074,3.074,0,0,1-1.06,1,3.316,3.316,0,0,1-1.121.143h-1.236V196.1l2.161-.012a7.256,7.256,0,0,0,1.8-.217A4.512,4.512,0,0,0,147.472,194.234Z"/><path class="a" d="M142.886,183.715a2.442,2.442,0,0,0,.715,1.162,2.915,2.915,0,0,0,1.9.459h1.837l1.882-2.674h-1.754c-.873,0-1.125-.1-1.238-.18a1.026,1.026,0,0,1-.385-.567,5.484,5.484,0,0,1-.171-1.033l-.632-5.5h-3.132l.657,6.5A11.023,11.023,0,0,0,142.886,183.715Z"/><path class="a" d="M159.6,181.916a1.027,1.027,0,0,1-.385.566c-.113.077-.364.18-1.238.18h-1.754l1.882,2.674h1.838a2.916,2.916,0,0,0,1.9-.459,2.449,2.449,0,0,0,.715-1.162,11.033,11.033,0,0,0,.317-1.837l.657-6.5H160.4l-.633,5.5A5.435,5.435,0,0,1,159.6,181.916Z"/></g></svg>