<svg xmlns="http://www.w3.org/2000/svg" width="12.899" height="12.898" viewBox="0 0 12.899 12.898"><defs><style>.a{fill:#333;}</style></defs><g transform="translate(-13.785 -21.405)"><path class="a" d="M13.786,748.7a.238.238,0,0,0,.334.246l3.046-1.33-3.013-2.22C14.04,746.4,13.8,748.534,13.786,748.7Z" transform="translate(0 -714.674)"/><path class="a" d="M653.578,742.789a.461.461,0,0,0,.461.461h3.688a.46.46,0,1,0,0-.92h-3.688A.461.461,0,0,0,653.578,742.789Z" transform="translate(-631.562 -711.649)"/><path class="a" d="M523.057,24.223a.661.661,0,0,0-.14-.924l-2.4-1.764a.662.662,0,0,0-.924.14l-.2.266,3.46,2.548Z" transform="translate(-499.112)"/><path class="a" d="M70.742,91.936l-5.569,7.555,3.459,2.549L74.2,94.484Zm-1.824,8.375a.4.4,0,1,1-.649-.468l3.749-5.2a.4.4,0,1,1,.649.468Z" transform="translate(-50.727 -69.623)"/><path class="a" d="M379.688,952.4h-7.371a.461.461,0,0,0,0,.921h7.371a.461.461,0,1,0,0-.921Z" transform="translate(-353.465 -919.021)"/></g></svg>